<?xml version="1.0" encoding="utf-8"?>
<!-- Generator: Adobe Illustrator 21.0.0, SVG Export Plug-In . SVG Version: 6.00 Build 0)  -->
<svg version="1.1" id="Layer_1" xmlns="http://www.w3.org/2000/svg" xmlns:xlink="http://www.w3.org/1999/xlink" x="0px" y="0px"
	 viewBox="0 0 500 150" style="enable-background:new 0 0 500 150;" xml:space="preserve">
<style type="text/css">
	.st0{fill:#014258;}
	.st1{fill-rule:evenodd;clip-rule:evenodd;fill:#014258;}
	.st2{fill-rule:evenodd;clip-rule:evenodd;fill:#00A796;}
</style>
<g>
	<g id="XMLID_1871_">
		<path id="XMLID_1909_" class="st0" d="M200.2,101v-2.5c0-0.3,0.1-0.6,0.2-0.9s0.2-0.6,0.4-0.9c0.2-0.3,0.4-0.6,0.6-0.8
			s0.5-0.5,0.8-0.7s0.6-0.3,1-0.4c0.3-0.1,0.7-0.2,1.1-0.1l3.1,0c0.1,0,0.3,0,0.4,0.1s0.2,0.1,0.3,0.2c0.1,0.1,0.2,0.2,0.2,0.3
			c0.1,0.1,0.1,0.3,0.1,0.4v6.4c0,0.1,0,0.3-0.1,0.4c-0.1,0.1-0.1,0.2-0.2,0.3c-0.1,0.1-0.2,0.2-0.3,0.2s-0.3,0.1-0.4,0.1h-6.1
			c-0.3,0-0.5,0-0.8,0c-0.2,0-0.4,0.1-0.6,0.2c-0.2,0.1-0.3,0.2-0.4,0.4c-0.1,0.2-0.1,0.4-0.1,0.8v3.5h-2.2v-3.5
			c0-0.6,0.1-1,0.2-1.4s0.4-0.8,0.6-1.1s0.6-0.5,1-0.7C199.4,101.2,199.8,101,200.2,101z M202.4,100.9h3.8v-4.3c-0.5,0-0.9,0-1.1,0
			s-0.5,0-0.6,0s-0.2,0-0.2,0h0c-0.2,0-0.5,0.1-0.7,0.2c-0.2,0.1-0.4,0.2-0.6,0.4c-0.2,0.2-0.3,0.4-0.4,0.6
			c-0.1,0.2-0.2,0.5-0.2,0.7V100.9z"/>
		<path id="XMLID_1912_" class="st0" d="M215.4,103.1c-0.3,0-0.5,0.1-0.8,0.1c-0.3,0-0.5,0-0.8,0c-0.3,0-0.6,0-0.8,0
			c-0.3,0-0.6,0-0.8-0.1c-0.3,0-0.5-0.1-0.8-0.1c-0.3,0-0.5-0.1-0.8-0.2c-0.2-0.1-0.4-0.2-0.6-0.4c-0.2-0.2-0.2-0.4-0.2-0.7v-3.2
			c0-0.6,0.1-1.1,0.3-1.6c0.2-0.5,0.5-0.9,0.9-1.3c0.4-0.4,0.8-0.7,1.3-0.9c0.5-0.2,1-0.3,1.6-0.3h2.7c0.2,0,0.4,0,0.5,0.1
			s0.3,0.2,0.4,0.3c0.1,0.1,0.2,0.3,0.3,0.4c0.1,0.2,0.1,0.3,0.1,0.5c0,0.5,0,1.1,0.1,1.8c0,0.6,0.1,1.3,0.1,2c0,0.6,0,1.1-0.1,1.7
			s-0.1,1.1-0.2,1.7c-0.1,0.7-0.3,1.4-0.6,2c-0.3,0.6-0.6,1.1-1.1,1.6c-0.5,0.5-1,0.8-1.6,1.1c-0.6,0.3-1.4,0.4-2.3,0.4v-2.2
			c0.5,0,1-0.1,1.4-0.2c0.4-0.1,0.7-0.3,1-0.6c0.3-0.2,0.5-0.5,0.7-0.9C215.1,103.9,215.3,103.5,215.4,103.1z M213.8,101
			c0.7,0,1.3-0.1,1.9-0.2c0-0.4,0-0.9,0-1.3c0-0.5,0-1,0-1.5c0-0.5,0-1,0-1.4l-1.9,0c-0.3,0-0.5,0.1-0.7,0.2
			c-0.2,0.1-0.4,0.2-0.6,0.4c-0.2,0.2-0.3,0.4-0.4,0.6c-0.1,0.2-0.2,0.5-0.2,0.7l0,2.3c0.2,0,0.4,0.1,0.5,0.1c0.2,0,0.3,0,0.4,0.1
			c0.1,0,0.3,0,0.4,0C213.4,101,213.6,101,213.8,101z"/>
		<path id="XMLID_1915_" class="st0" d="M222.3,103h-2.2V90.9h2.2V103z"/>
		<path id="XMLID_1917_" class="st0" d="M224.7,103.1v-2.2h5.7c0-0.8-0.1-1.4-0.3-1.9s-0.3-0.9-0.6-1.3c-0.3-0.4-0.8-0.7-1.5-0.8
			c-0.7-0.2-1.5-0.2-2.6-0.2l0-2.2c0.7,0,1.4,0,1.9,0.1c0.6,0.1,1.1,0.2,1.6,0.3c0.5,0.1,0.9,0.3,1.3,0.6c0.4,0.2,0.7,0.5,1,0.8
			c0.5,0.5,0.8,1.2,1,1.9c0.2,0.7,0.3,1.6,0.4,2.7h1.3v2.2L224.7,103.1z"/>
		<path id="XMLID_1919_" class="st0" d="M233.6,100.9h1.7v-2.5c0-0.3,0-0.6,0.1-0.9c0.1-0.3,0.2-0.6,0.4-0.9
			c0.2-0.3,0.4-0.6,0.6-0.8s0.5-0.5,0.8-0.7s0.6-0.3,1-0.4c0.3-0.1,0.7-0.1,1.1-0.1l3.1,0c0.1,0,0.3,0,0.4,0.1s0.2,0.1,0.3,0.2
			c0.1,0.1,0.2,0.2,0.2,0.3c0.1,0.1,0.1,0.3,0.1,0.4v6.3c0,0.2,0,0.3-0.1,0.5c-0.1,0.1-0.1,0.3-0.2,0.4c-0.1,0.1-0.2,0.2-0.3,0.3
			s-0.3,0.1-0.4,0.1h-8.8V100.9z M237.5,100.9h3.8v-4.2c-0.5,0-0.9,0-1.2,0s-0.5,0-0.6,0s-0.2,0-0.2,0c0,0,0,0-0.1,0
			c-0.2,0-0.5,0.1-0.7,0.2c-0.2,0.1-0.4,0.2-0.6,0.4c-0.2,0.2-0.3,0.4-0.4,0.6c-0.1,0.2-0.2,0.4-0.2,0.7V100.9z"/>
		<path id="XMLID_1922_" class="st0" d="M253.1,103.1c-0.8,0-1.4-0.1-2-0.3c-0.5-0.2-1-0.5-1.3-0.9c-0.3-0.4-0.6-0.8-0.7-1.3
			c-0.1-0.5-0.2-1-0.2-1.4c0-0.3,0-0.6,0.1-0.8c0-0.3,0.1-0.5,0.2-0.8c0.1-0.3,0.1-0.5,0.2-0.7c0.1-0.2,0.2-0.4,0.3-0.6l1.9,1
			c-0.1,0.2-0.2,0.6-0.3,0.9c-0.1,0.4-0.1,0.7-0.1,1.1c0,0.2,0,0.5,0.1,0.7c0.1,0.2,0.1,0.4,0.3,0.6c0.1,0.2,0.3,0.3,0.6,0.4
			c0.2,0.1,0.6,0.1,0.9,0.2l5.2,0v-6.1h2.2v6.1h1.7v2.2H253.1z M251.7,92.9c0-0.2,0-0.3,0.1-0.5c0.1-0.1,0.1-0.3,0.2-0.4
			c0.1-0.1,0.2-0.2,0.4-0.2s0.3-0.1,0.5-0.1s0.3,0,0.5,0.1s0.3,0.1,0.4,0.2c0.1,0.1,0.2,0.2,0.2,0.4c0.1,0.1,0.1,0.3,0.1,0.5
			c0,0.2,0,0.3-0.1,0.5c-0.1,0.1-0.1,0.3-0.2,0.4c-0.1,0.1-0.2,0.2-0.4,0.2s-0.3,0.1-0.5,0.1s-0.3,0-0.5-0.1s-0.3-0.1-0.4-0.2
			c-0.1-0.1-0.2-0.2-0.2-0.4C251.8,93.2,251.7,93.1,251.7,92.9z M254.4,92.9c0-0.2,0-0.3,0.1-0.5c0.1-0.1,0.1-0.3,0.2-0.4
			c0.1-0.1,0.2-0.2,0.4-0.2s0.3-0.1,0.5-0.1s0.3,0,0.5,0.1c0.1,0.1,0.3,0.1,0.4,0.2c0.1,0.1,0.2,0.2,0.2,0.4
			c0.1,0.1,0.1,0.3,0.1,0.5c0,0.2,0,0.3-0.1,0.5c-0.1,0.1-0.1,0.3-0.2,0.4c-0.1,0.1-0.2,0.2-0.4,0.2c-0.1,0.1-0.3,0.1-0.5,0.1
			s-0.3,0-0.5-0.1s-0.3-0.1-0.4-0.2c-0.1-0.1-0.2-0.2-0.2-0.4C254.5,93.2,254.4,93.1,254.4,92.9z"/>
		<path id="XMLID_1926_" class="st0" d="M261.9,103.1v-2.2h2.1c-0.2-0.3-0.3-0.7-0.4-1c-0.1-0.4-0.1-0.7-0.1-1.1
			c0-0.5,0.1-1.1,0.3-1.6s0.4-1,0.8-1.4s0.8-0.7,1.2-1s1.1-0.4,1.7-0.4h2.6c0.2,0,0.4,0,0.5,0.1c0.2,0.1,0.3,0.2,0.4,0.3
			c0.1,0.1,0.2,0.3,0.3,0.4c0.1,0.2,0.1,0.4,0.1,0.5l0,6.1c0,0.1,0,0.3-0.1,0.4c-0.1,0.1-0.1,0.2-0.2,0.3c-0.1,0.1-0.2,0.2-0.3,0.2
			c-0.1,0.1-0.3,0.1-0.4,0.1H261.9z M265.9,99.7c0.1,0.3,0.3,0.6,0.6,0.8c0.3,0.2,0.6,0.3,1.1,0.3h1.9v-4.3h-1.9
			c-0.3,0-0.6,0.1-0.8,0.2s-0.4,0.3-0.6,0.5s-0.3,0.4-0.3,0.7c-0.1,0.3-0.1,0.5-0.1,0.8c0,0.2,0,0.3,0,0.5
			C265.8,99.4,265.9,99.6,265.9,99.7z M267,92.2c0-0.2,0-0.3,0.1-0.5c0.1-0.1,0.1-0.3,0.2-0.4c0.1-0.1,0.2-0.2,0.4-0.2
			c0.1-0.1,0.3-0.1,0.5-0.1c0.2,0,0.3,0,0.5,0.1c0.1,0.1,0.3,0.1,0.4,0.2c0.1,0.1,0.2,0.2,0.2,0.4c0.1,0.1,0.1,0.3,0.1,0.5
			s0,0.3-0.1,0.5c-0.1,0.1-0.1,0.3-0.2,0.4c-0.1,0.1-0.2,0.2-0.4,0.2c-0.1,0.1-0.3,0.1-0.5,0.1c-0.2,0-0.3,0-0.5-0.1
			c-0.1-0.1-0.3-0.1-0.4-0.2c-0.1-0.1-0.2-0.2-0.2-0.4C267,92.5,267,92.3,267,92.2z"/>
		<path id="XMLID_1930_" class="st0" d="M278,95.8c0,0.5,0,1.1,0.1,1.8c0,0.6,0.1,1.3,0.1,2c0,0.4,0,0.8,0,1.3h1.5v2.2h-1.8
			c-0.1,0.7-0.4,1.3-0.6,1.9s-0.6,1.1-1.1,1.6s-1,0.8-1.6,1.1c-0.6,0.3-1.4,0.4-2.3,0.4v-2.2c0.6,0,1.1-0.1,1.5-0.3
			c0.4-0.2,0.8-0.4,1-0.7s0.5-0.7,0.7-1.1c0.2-0.4,0.3-0.8,0.4-1.3c0.1-0.5,0.1-1,0.2-1.5c0-0.5,0-1,0-1.5c0-0.7,0-1.3,0-2
			s0-1.2,0-1.7H278z"/>
		<path id="XMLID_1932_" class="st0" d="M287.5,103.1v-0.7c-0.1,0.2-0.2,0.4-0.4,0.5c-0.2,0.1-0.4,0.2-0.6,0.2h-3.4v-0.7
			c-0.1,0.2-0.2,0.4-0.4,0.5c-0.2,0.1-0.4,0.2-0.6,0.2h-2.7v-2.2h1.6v-6.1h2.2v6.1h2.3v-6.1h2.2v6.1h2.3v-6.1h2.2v6.1h1.6v2.2H287.5
			z M283.7,92.2c0-0.2,0-0.3,0.1-0.5c0.1-0.1,0.1-0.3,0.2-0.4c0.1-0.1,0.2-0.2,0.4-0.2c0.1-0.1,0.3-0.1,0.5-0.1c0.2,0,0.3,0,0.5,0.1
			c0.1,0.1,0.3,0.1,0.4,0.2c0.1,0.1,0.2,0.2,0.2,0.4c0.1,0.1,0.1,0.3,0.1,0.5s0,0.3-0.1,0.5c-0.1,0.1-0.1,0.3-0.2,0.4
			c-0.1,0.1-0.2,0.2-0.4,0.2c-0.1,0.1-0.3,0.1-0.5,0.1c-0.2,0-0.3,0-0.5-0.1c-0.1-0.1-0.3-0.1-0.4-0.2c-0.1-0.1-0.2-0.2-0.2-0.4
			C283.7,92.5,283.7,92.3,283.7,92.2z M285.3,89.6c0-0.2,0-0.3,0.1-0.5c0.1-0.1,0.1-0.3,0.2-0.4c0.1-0.1,0.2-0.2,0.4-0.2
			c0.1-0.1,0.3-0.1,0.5-0.1c0.2,0,0.3,0,0.5,0.1c0.1,0.1,0.3,0.1,0.4,0.2c0.1,0.1,0.2,0.2,0.2,0.4s0.1,0.3,0.1,0.5s0,0.3-0.1,0.5
			s-0.1,0.3-0.2,0.4c-0.1,0.1-0.2,0.2-0.4,0.2c-0.1,0.1-0.3,0.1-0.5,0.1c-0.2,0-0.3,0-0.5-0.1c-0.1-0.1-0.3-0.1-0.4-0.2
			c-0.1-0.1-0.2-0.2-0.2-0.4C285.4,89.9,285.3,89.7,285.3,89.6z M286.9,92.2c0-0.2,0-0.3,0.1-0.5s0.1-0.3,0.2-0.4
			c0.1-0.1,0.2-0.2,0.4-0.2c0.1-0.1,0.3-0.1,0.5-0.1s0.3,0,0.5,0.1c0.1,0.1,0.3,0.1,0.4,0.2c0.1,0.1,0.2,0.2,0.2,0.4
			s0.1,0.3,0.1,0.5s0,0.3-0.1,0.5s-0.1,0.3-0.2,0.4c-0.1,0.1-0.2,0.2-0.4,0.2c-0.1,0.1-0.3,0.1-0.5,0.1s-0.3,0-0.5-0.1
			c-0.1-0.1-0.3-0.1-0.4-0.2c-0.1-0.1-0.2-0.2-0.2-0.4S286.9,92.3,286.9,92.2z"/>
		<path id="XMLID_1937_" class="st0" d="M295.5,100.9v-6.1h2.2v6.1h1.8v2.2h-6v-2.2H295.5z M293.9,105.8c0-0.2,0-0.3,0.1-0.5
			c0.1-0.1,0.1-0.3,0.2-0.4c0.1-0.1,0.2-0.2,0.4-0.2s0.3-0.1,0.5-0.1c0.2,0,0.3,0,0.5,0.1c0.1,0.1,0.3,0.1,0.4,0.2
			c0.1,0.1,0.2,0.2,0.2,0.4s0.1,0.3,0.1,0.5c0,0.2,0,0.3-0.1,0.5s-0.1,0.3-0.2,0.4c-0.1,0.1-0.2,0.2-0.4,0.2
			c-0.1,0.1-0.3,0.1-0.5,0.1c-0.2,0-0.3,0-0.5-0.1c-0.1-0.1-0.3-0.1-0.4-0.2c-0.1-0.1-0.2-0.2-0.2-0.4
			C294,106.1,293.9,106,293.9,105.8z M296.6,105.8c0-0.2,0-0.3,0.1-0.5s0.1-0.3,0.2-0.4c0.1-0.1,0.2-0.2,0.4-0.2
			c0.1-0.1,0.3-0.1,0.5-0.1s0.3,0,0.5,0.1c0.1,0.1,0.3,0.1,0.4,0.2c0.1,0.1,0.2,0.2,0.2,0.4s0.1,0.3,0.1,0.5c0,0.2,0,0.3-0.1,0.5
			s-0.1,0.3-0.2,0.4c-0.1,0.1-0.2,0.2-0.4,0.2c-0.1,0.1-0.3,0.1-0.5,0.1s-0.3,0-0.5-0.1c-0.1-0.1-0.3-0.1-0.4-0.2
			c-0.1-0.1-0.2-0.2-0.2-0.4S296.6,106,296.6,105.8z"/>
		<path id="XMLID_1941_" class="st0" d="M299.1,100.9l4.5,0v-6.1h2.2v7.1c0,0,0,0.1,0,0.1c0,0.1,0,0.3-0.1,0.4s-0.1,0.2-0.2,0.3
			c-0.1,0.1-0.2,0.2-0.3,0.2c-0.1,0.1-0.3,0.1-0.4,0.1l-5.5,0V100.9z M299.9,105.3c0.1-0.1,0.1-0.3,0.2-0.4c0.1-0.1,0.2-0.2,0.4-0.2
			c0.1-0.1,0.3-0.1,0.5-0.1c0.2,0,0.3,0,0.5,0.1c0.1,0.1,0.3,0.1,0.4,0.2c0.1,0.1,0.2,0.2,0.2,0.4c0.1,0.1,0.1,0.3,0.1,0.5
			c0,0.2,0,0.3-0.1,0.5c-0.1,0.1-0.1,0.3-0.2,0.4c-0.1,0.1-0.2,0.2-0.4,0.2c-0.1,0.1-0.3,0.1-0.5,0.1c-0.2,0-0.3,0-0.5-0.1
			c-0.1-0.1-0.3-0.1-0.4-0.2c-0.1-0.1-0.2-0.2-0.2-0.4c-0.1-0.1-0.1-0.3-0.1-0.5C299.8,105.6,299.9,105.5,299.9,105.3z M301.5,107.9
			c0.1-0.1,0.1-0.3,0.2-0.4c0.1-0.1,0.2-0.2,0.4-0.2c0.1-0.1,0.3-0.1,0.5-0.1c0.2,0,0.3,0,0.5,0.1c0.1,0.1,0.3,0.1,0.4,0.2
			c0.1,0.1,0.2,0.2,0.2,0.4c0.1,0.1,0.1,0.3,0.1,0.5c0,0.2,0,0.3-0.1,0.5c-0.1,0.1-0.1,0.3-0.2,0.4c-0.1,0.1-0.2,0.2-0.4,0.2
			c-0.1,0.1-0.3,0.1-0.5,0.1c-0.2,0-0.3,0-0.5-0.1c-0.1-0.1-0.3-0.1-0.4-0.2c-0.1-0.1-0.2-0.2-0.2-0.4c-0.1-0.1-0.1-0.3-0.1-0.5
			C301.5,108.2,301.5,108.1,301.5,107.9z M303.2,105.3c0.1-0.1,0.1-0.3,0.2-0.4c0.1-0.1,0.2-0.2,0.4-0.2s0.3-0.1,0.5-0.1
			c0.2,0,0.3,0,0.5,0.1c0.1,0.1,0.3,0.1,0.4,0.2c0.1,0.1,0.2,0.2,0.2,0.4c0.1,0.1,0.1,0.3,0.1,0.5c0,0.2,0,0.3-0.1,0.5
			c-0.1,0.1-0.1,0.3-0.2,0.4c-0.1,0.1-0.2,0.2-0.4,0.2c-0.1,0.1-0.3,0.1-0.5,0.1c-0.2,0-0.3,0-0.5-0.1s-0.3-0.1-0.4-0.2
			c-0.1-0.1-0.2-0.2-0.2-0.4c-0.1-0.1-0.1-0.3-0.1-0.5C303.1,105.6,303.1,105.5,303.2,105.3z"/>
	</g>
	<path id="XMLID_1830_" class="st0" d="M185.1,42.9c0,0-0.7-0.4-1.3,0.5c0,0-2.8,3.3-4.9,2.9c-2.2-0.4-9.1-0.1-11.6,0.3
		c-2.5,0.4-5.3-1.1-4.1-2.3c0,0,0-0.4,2.2-1.3c2.3-0.8,3.7-2,3.7-2s3.4-1.7,5.2-3.4c1.7-1.7,0.5-2.1,0.5-2.1s-0.9-0.1-11.4,2.1
		c0,0-3.3,0.3-5.9,3.5c-0.5,0.6-0.9,1.1-1.3,1.5c0,0,0,0,0,0c0,0,0,0,0,0c-0.5,0.5-0.9,0.9-1.3,1.2c-1.5,0.6-3.8,0.9-4.3,1
		c-6.5,0.4-13,1.3-19.4,2.4c-10,1.7-19.8,4.5-28.6,9.3c-7.9,4.3-15.8,4.6-24.1,2.6c-6.5-1.5-12.9-3.4-19.4-4.8
		c-6.8-1.5-16-3.9-23.1-3.9c-7,0-14.3,5.2-13.2,15.1c0.6,4.7,0.9,4.5,3,10.3c5.4,12.5,13.1,23.3,21.6,33c0.8,1,2.1,1.1,4.5,0.2
		c0.3-0.3-2-2.5-2.6-3.1c-0.5-0.5-1.4-1.5-1.9-2.1c-1.2-1.6-2.3-3.2-3.5-4.7c-0.4-0.6-2.5-3.5-2.9-4.1c-1.2-2-4.2-7.3-4.6-8.2
		c-2.5-4.9-9.1-16.7-8-23.8c1.1-5.4,6.1-8.2,11.7-7.2c11.5,2,22.7,4.8,34,7.5c5,1.2,10,1.7,15.1,2.5c4.7,0.7,9.3-0.4,13.5-2.4
		c7.6-3.5,15.3-6.5,23.4-8.8c6-1.7,12.2-2.7,18.4-3.4c0.9-0.1,4.5-0.3,5.5-0.6c2.9-0.8,4.7,0.3,5.8,2.9c0.4,0.9,1,1.9,1.8,2.6
		c1.6,1.4,1.3,2.2-0.1,3.6c-8,7.6-11.4,17.6-13.8,28c-0.8,3.5-0.4,7.1-0.6,10.8c-3.7-1.5-7-3.2-10.4-4.8c-7.3-3.5-13.8-8.8-22.4-9.5
		c-8.7-0.7-17.1-2.8-25.6-4.6c-3.5-0.7-12.3-3-13.1-3.2c-8.5-2.3-16.6-5.4-24.7-8.6c-2.8-1.1-5.6-0.5-7.5,1.4
		c-1.6,1.7-2.4,4.1-1.7,7.5c0.5,2.7,0.7,5.2,6.7,16.8c1.5,2.9,2.9,5.2,4.9,7.8c1.1,1.5,5,6.9,5.9,7.3c2.7,1,2.9,0.1,2.9,0
		c-0.1-0.6-0.6-0.9-1-1.4C49.5,98.3,44,88.4,41.2,77c-0.5-2-0.6-3.9,0.9-5.5c1.2-1.2,2.8-1.2,4.4-0.9c0.5,0.1,0.9,0.4,1.4,0.6
		c20.4,8.6,38,12.7,57.7,16.8c4,0.8,8.2,0.8,11.8,3.4c3.7,2.7,7.8,4.6,11.7,6.9c4.5,2.7,9.7,4.2,13.7,7.8c1.7,1.5,3.5,2.3,5.6,2.6
		c7.1,0.9,14.2-0.9,21.3-0.9c1,0,2.7-0.2,2.6-2c-0.2-1.7-1.8-1.5-2.9-1.7c-2.3-0.4-4.7-0.5-7.1-0.8c-4.4-0.5-8.5-2.7-13.1-2.6
		c-1.4,0-1.6-0.5-1.6-1.7c0-4.8,0.6-9.6,2.1-14.2c2-6.3,5.1-12,10-16.5c0.6-0.5,1.4-1.8,2.3-1.9c0.3,0.2,0.6,0.4,0.9,0.6
		c0.6,0.6,2.8,0.9,3.5,0.9c1.4-0.1,2.4-0.6,3.6-1.7c0.9-0.9,0.6-2.1,0.6-2.1c-0.3-1.3-0.6-3.3-0.4-4.3c0.9-4.3-0.2-7.1-0.2-7.1
		c1.1-0.3,2.7-0.7,4.9-1.1c5.5-1,8.2-1.6,10.1-5.5C185.1,46.1,186.4,43.4,185.1,42.9z M170.1,52.7C170.1,52.7,170.1,52.7,170.1,52.7
		C170.1,52.7,170.1,52.7,170.1,52.7L170.1,52.7z"/>
	<g id="XMLID_1812_">
		<g id="XMLID_1821_">
			<polygon id="XMLID_1829_" class="st1" points="401.8,35.5 392.3,42.8 392.3,47.4 403.3,38.9 			"/>
			<path id="XMLID_1828_" class="st1" d="M433.7,52.4c0.4,2.9,1.1,5.5,1.1,14.8v4.9c-0.7,1.9-3.2,3.6-7,6.3l3.8,4.1
				c5.6-4,8-6.7,8-13.2v-6.3c0-5.3-0.3-9.4-0.9-12.1L433.7,52.4z"/>
			<path id="XMLID_1827_" class="st1" d="M378.3,46.3h4c0.5,0,0.9-0.4,0.9-0.9v-3.8c0-0.5-0.4-0.9-0.9-0.9h-4
				c-0.5,0-0.9,0.4-0.9,0.9v3.8C377.4,45.9,377.8,46.3,378.3,46.3z"/>
			<path id="XMLID_1826_" class="st1" d="M363.4,38.2c0.6,3.5,1.1,7,1.1,14.8v22l4.7-1.5V47.9c0-5.3-0.3-8.5-0.9-11.2L363.4,38.2z"
				/>
			<path id="XMLID_1825_" class="st1" d="M351.2,52.4c0.4,2.9,1.1,5.5,1.1,14.8v4.9c-0.7,1.9-3.2,3.6-7,6.3l3.8,4.1
				c5.6-4,8-6.7,8-13.2v-6.3c0-5.3-0.3-9.4-0.9-12.1L351.2,52.4z"/>
			<path id="XMLID_1824_" class="st1" d="M480.9,51.5H467l12.9-9.5l-2-4.5l-18.8,14.3v5.4h20.6c4.6,0,8.3,3.7,8.3,8
				c0,1.1,0,2.6-0.6,3.6c-1,0.4-2.4,0.5-3.5,0.5h-28.1c-2.3,0-4.2-1.9-4.2-4.2V47.9c0-5.3-0.3-8.5-0.9-11.2l-5,1.5
				c0.6,3.5,1.1,7,1.1,14.8v14.7c0,4,3.3,7.3,7.3,7.3h26.7c3.1,0,4.5,0,7.3-0.4c2.3-1.7,4.6-5,4.6-8.6v-3
				C492.8,56.7,487.2,51.5,480.9,51.5z"/>
			<path id="XMLID_1823_" class="st1" d="M414.1,51.5h-13.9l12.9-9.5l-2-4.5l-18.8,14.3v5.4h20.6c4.6,0,8.3,3.7,8.3,8
				c0,1.1-0.1,2.6-0.6,3.6c-0.9,0.4-2.4,0.5-3.5,0.5h-29.5c-2.3,0-4.2-1.5-4.2-3.7l0,0v-2.6c0-5.3-0.3-9.4-0.9-12.1l-5,1.5
				c0.4,2.9,1.1,5.5,1.1,14.8v4.9c-0.7,1.9-3.2,3.6-7,6.3l3.8,4.1c4-2.9,6.4-5.1,7.4-8.5c1,0.6,2.2,1,3.6,1h27.7
				c3.1,0,4.5,0,7.3-0.4c2.3-1.7,4.6-5,4.6-8.6v-3C426,56.7,420.4,51.5,414.1,51.5z"/>
			<path id="XMLID_1822_" class="st1" d="M330.2,56.8c0.8-0.2,2.2-0.4,3.3-0.4h6.9l1.8-5.7h-3.5c-3.4,0-5.1,0-7.9,0.4
				c-4.4,3.8-7.4,7.9-7.1,13.1c0.3,5.3,4.7,6.6,8.8,6.6h4.9c-1,3.7-3.5,5.6-7.2,5.6h-8.1c-2.3,0-4.2-1.9-4.2-4.2V67l-4.8,1.5v6.2
				c0,4,3.3,7,7.3,7h9.6c3.5,0,6.7-1.6,8.8-4.3c2.3-3,3.1-5.9,3.1-9.1c0-1.6-1.3-3-2.9-3h-4.4c-4.4,0-6.6-1.2-6.6-4.2
				c0-0.6,0.1-1.3,0.4-2C328.9,58.3,329.4,57.4,330.2,56.8z"/>
		</g>
		<g id="XMLID_1813_">
			<path id="XMLID_1820_" class="st2" d="M228.5,76.6h-4c-0.5,0-0.9,0.4-0.9,0.9v3.8c0,0.5,0.4,0.9,0.9,0.9h4c0.5,0,0.9-0.4,0.9-0.9
				v-3.8C229.4,77,229,76.6,228.5,76.6z"/>
			<path id="XMLID_1819_" class="st2" d="M236.5,76.6h-4c-0.5,0-0.9,0.4-0.9,0.9v3.8c0,0.5,0.4,0.9,0.9,0.9h4c0.5,0,0.9-0.4,0.9-0.9
				v-3.8C237.4,77,237,76.6,236.5,76.6z"/>
			<path id="XMLID_1818_" class="st2" d="M265.4,44.7h4c0.5,0,0.9-0.4,0.9-0.9v-3.8c0-0.5-0.4-0.9-0.9-0.9h-4
				c-0.5,0-0.9,0.4-0.9,0.9v3.8C264.5,44.3,264.9,44.7,265.4,44.7z"/>
			<path id="XMLID_1814_" class="st2" d="M297.9,49.6h-10.3l-2.1,5.6h4.6l-6.4,9.2c-1.4,1.8-3.4,2.7-5.8,2.7h-2.9h-0.3
				c1.1-1.2,1.7-2.5,1.7-4.1v-8.5c0-2.8-2.3-5-5-5h-8.5c-4.1,3-8.3,7.6-7.8,13.3c0.1,1.7,0.7,3.1,1.6,4.3l-6.4,0
				c-2,0-3.6-1.6-3.6-3.6v-14l-5,2.4v12.1l-0.1,0.1c-2,2.9-4.3,3.2-9,3.2H224c-2,0-3.6-1.6-3.6-3.6c0,0-0.2-5.4-0.3-7.3
				c-0.2-5.3-4.7-6.6-8.8-6.6h-4.2h-1.7l-2,5.6c0,0,0.2,0,1.5,0h3.4c4.4,0,7.2,1.2,7.2,4.2c0,3.2,0,6.8-1,7.3
				c-0.8,0.4-2.2,0.4-3.3,0.4H199l-1.8,5.9c0,0,14,0,16.3,0c1.3,0,3.7-1.4,4.1-4.1c0.2,0.8,0.2,1.3,1.2,2.5c0.7,0.9,2.4,1.6,3.4,1.6
				h10.4c4.8,0,7.1-0.9,9.5-3.6l0.3-0.4l0.3,0.4c1.3,2.2,3.6,3.6,6.2,3.6h18.6c0,0,0,0,0,0c0,0,0,0,0,0l10.6,0
				c3.4,0,6.3-1.5,8.2-4.3l1-1.4l0.2,0.7c1.5,4,5.9,5.1,8.3,5.1h6.8l0.8-0.8c2-2,3.8-3.7,3.8-7.2v-5.7
				C307,53.5,303.3,49.6,297.9,49.6z M261.9,55h7.8c1.1,0,2,0.9,2,2v4.8c0,2.1-0.1,4.5-1.6,5.2l-6.3,0c-3.1-0.2-4.1-3.7-4.1-7.1
				C259.8,58.5,260.4,56.9,261.9,55z M301.9,67.1h-5.1c-3.5,0-5.5-1.7-5.9-5.1l0-0.1l4.5-6.6h1.1c3.3,0,5.5,2.5,5.5,6.5V67.1z"/>
		</g>
	</g>
</g>
</svg>
